<svg xmlns="http://www.w3.org/2000/svg" xmlns:xlink="http://www.w3.org/1999/xlink" width="16" height="16" preserveAspectRatio="xMidYMid meet" viewBox="0 0 24 24" style="-ms-transform: rotate(360deg); -webkit-transform: rotate(360deg); transform: rotate(360deg);"><path fill="#8b949e" d="m8 23.01l2.5-1.5l2.5 1.5V19H8v4.01zM8 5h2v2H8zm0 5h2v2H8zm0 5.01h2v2H8z"/><path fill="#8b949e" d="M18.36 1.05A1.47 1.47 0 0 0 18 1H6a2 2 0 0 0-2 2v16a2 2 0 0 0 2 2V3h12v16h-3v2h3a2 2 0 0 0 2-2V3a2 2 0 0 0-1.64-1.95Z"/></svg>